{
	"asset":{
		"generator":"Khronos glTF Blender I/O v3.6.28",
		"version":"2.0"
	},
	"scene":0,
	"scenes":[
		{
			"name":"Scene",
			"nodes":[
				0
			]
		}
	],
	"nodes":[
		{
			"mesh":0,
			"name":"combined-1707909872504",
			"rotation":[
				0,
				1,
				0,
				0
			],
			"scale":[
				-0.09547486901283264,
				-0.17284464836120605,
				-0.09547486901283264
			]
		}
	],
	"meshes":[
		{
			"name":"combined-1707909872504.001",
			"primitives":[
				{
					"attributes":{
						"POSITION":0,
						"NORMAL":1
					},
					"indices":2
				}
			]
		}
	],
	"accessors":[
		{
			"bufferView":0,
			"componentType":5126,
			"count":63537,
			"max":[
				49.71590805053711,
				-0.37041473388671875,
				49.715904235839844
			],
			"min":[
				-49.715904235839844,
				-77.70626831054688,
				-49.71590805053711
			],
			"type":"VEC3"
		},
		{
			"bufferView":1,
			"componentType":5126,
			"count":63537,
			"type":"VEC3"
		},
		{
			"bufferView":2,
			"componentType":5123,
			"count":282996,
			"type":"SCALAR"
		}
	],
	"bufferViews":[
		{
			"buffer":0,
			"byteLength":762444,
			"byteOffset":0,
			"target":34962
		},
		{
			"buffer":0,
			"byteLength":762444,
			"byteOffset":762444,
			"target":34962
		},
		{
			"buffer":0,
			"byteLength":565992,
			"byteOffset":1524888,
			"target":34963
		}
	],
	"buffers":[
		{
			"byteLength":2090880,
			"uri":"data:application/octet-stream;base64,"
		}
	]
}
