{
	"asset":{
		"generator":"Khronos glTF Blender I/O v3.6.28",
		"version":"2.0"
	},
	"extensionsUsed":[
		"KHR_materials_specular",
		"KHR_materials_ior"
	],
	"scene":0,
	"scenes":[
		{
			"name":"Scene",
			"nodes":[
				0,
				1,
				2,
				3,
				4,
				5,
				6
			]
		}
	],
	"nodes":[
		{
			"mesh":0,
			"name":"Cap_1",
			"rotation":[
				0.7071068286895752,
				0,
				0,
				0.7071068286895752
			],
			"scale":[
				2.1671690940856934,
				1,
				2.1671690940856934
			],
			"translation":[
				-1.0287818908691406,
				0,
				0
			]
		},
		{
			"mesh":1,
			"name":"Cap_2",
			"rotation":[
				0.7071068286895752,
				0,
				0,
				0.7071068286895752
			],
			"scale":[
				2.1671690940856934,
				1,
				2.1671690940856934
			],
			"translation":[
				-1.0287818908691406,
				0,
				0
			]
		},
		{
			"mesh":2,
			"name":"Path_1.1",
			"rotation":[
				0.7071068286895752,
				0,
				0,
				0.7071068286895752
			],
			"scale":[
				2.1671690940856934,
				1,
				2.1671690940856934
			],
			"translation":[
				-1.0287818908691406,
				0,
				0
			]
		},
		{
			"mesh":3,
			"name":"Extrude.1",
			"rotation":[
				0.6579801440238953,
				-0.25896352529525757,
				0.2589634954929352,
				0.65798020362854
			],
			"scale":[
				1.5000001192092896,
				1.5000001192092896,
				1.5
			],
			"translation":[
				28.114620208740234,
				0,
				13.26846981048584
			]
		},
		{
			"mesh":4,
			"name":"Extrude.002",
			"rotation":[
				0.5646471977233887,
				-0.42564481496810913,
				0.42564478516578674,
				0.5646472573280334
			],
			"scale":[
				1.318060278892517,
				1.318060278892517,
				1.318060278892517
			],
			"translation":[
				47.55866241455078,
				0,
				40.095802307128906
			]
		},
		{
			"mesh":5,
			"name":"Extrude.003",
			"rotation":[
				0.3326019048690796,
				-0.6240000128746033,
				0.6239999532699585,
				0.332601934671402
			],
			"scale":[
				0.49830353260040283,
				0.49830353260040283,
				0.49830353260040283
			],
			"translation":[
				30.872364044189453,
				0,
				81.4272232055664
			]
		},
		{
			"mesh":6,
			"name":"Extrude.004",
			"rotation":[
				0.1580880731344223,
				-0.6892083883285522,
				0.6892083287239075,
				0.1580880880355835
			],
			"scale":[
				0.5960826873779297,
				0.5960826873779297,
				0.5960826277732849
			],
			"translation":[
				5.372991561889648,
				0,
				107.66606903076172
			]
		}
	],
	"materials":[
		{
			"doubleSided":true,
			"extensions":{
				"KHR_materials_specular":{
					"specularColorFactor":[
						0,
						0,
						0
					]
				},
				"KHR_materials_ior":{
					"ior":1.4500000476837158
				}
			},
			"name":"default",
			"pbrMetallicRoughness":{
				"baseColorFactor":[
					0.800000011920929,
					0.800000011920929,
					0.800000011920929,
					1
				],
				"metallicFactor":0
			}
		},
		{
			"doubleSided":true,
			"extensions":{
				"KHR_materials_specular":{
					"specularColorFactor":[
						0,
						0,
						0
					]
				},
				"KHR_materials_ior":{
					"ior":1.4500000476837158
				}
			},
			"name":"default.001",
			"pbrMetallicRoughness":{
				"baseColorFactor":[
					0.800000011920929,
					0.800000011920929,
					0.800000011920929,
					1
				],
				"metallicFactor":0
			}
		},
		{
			"doubleSided":true,
			"extensions":{
				"KHR_materials_specular":{
					"specularColorFactor":[
						0,
						0,
						0
					]
				},
				"KHR_materials_ior":{
					"ior":1.4500000476837158
				}
			},
			"name":"default.002",
			"pbrMetallicRoughness":{
				"baseColorFactor":[
					0.800000011920929,
					0.800000011920929,
					0.800000011920929,
					1
				],
				"metallicFactor":0
			}
		},
		{
			"doubleSided":true,
			"extensions":{
				"KHR_materials_specular":{
					"specularColorFactor":[
						0,
						0,
						0
					]
				},
				"KHR_materials_ior":{
					"ior":1.4500000476837158
				}
			},
			"name":"default.003",
			"pbrMetallicRoughness":{
				"baseColorFactor":[
					0.800000011920929,
					0.800000011920929,
					0.800000011920929,
					1
				],
				"metallicFactor":0
			}
		},
		{
			"doubleSided":true,
			"extensions":{
				"KHR_materials_specular":{
					"specularColorFactor":[
						0,
						0,
						0
					]
				},
				"KHR_materials_ior":{
					"ior":1.4500000476837158
				}
			},
			"name":"default.004",
			"pbrMetallicRoughness":{
				"baseColorFactor":[
					0.800000011920929,
					0.800000011920929,
					0.800000011920929,
					1
				],
				"metallicFactor":0
			}
		}
	],
	"meshes":[
		{
			"name":"Cap_1",
			"primitives":[
				{
					"attributes":{
						"POSITION":0,
						"NORMAL":1,
						"TEXCOORD_0":2
					},
					"indices":3,
					"material":0
				}
			]
		},
		{
			"name":"Cap_2",
			"primitives":[
				{
					"attributes":{
						"POSITION":4,
						"NORMAL":5,
						"TEXCOORD_0":6
					},
					"indices":7,
					"material":0
				}
			]
		},
		{
			"name":"Path_1.1",
			"primitives":[
				{
					"attributes":{
						"POSITION":8,
						"NORMAL":9,
						"TEXCOORD_0":10
					},
					"indices":11,
					"material":0
				}
			]
		},
		{
			"name":"Extrude.1",
			"primitives":[
				{
					"attributes":{
						"POSITION":12,
						"NORMAL":13,
						"TEXCOORD_0":14
					},
					"indices":15,
					"material":1
				}
			]
		},
		{
			"name":"Extrude.002",
			"primitives":[
				{
					"attributes":{
						"POSITION":16,
						"NORMAL":17,
						"TEXCOORD_0":18
					},
					"indices":19,
					"material":2
				}
			]
		},
		{
			"name":"Extrude.003",
			"primitives":[
				{
					"attributes":{
						"POSITION":20,
						"NORMAL":21,
						"TEXCOORD_0":22
					},
					"indices":23,
					"material":3
				}
			]
		},
		{
			"name":"Extrude.004",
			"primitives":[
				{
					"attributes":{
						"POSITION":24,
						"NORMAL":25,
						"TEXCOORD_0":26
					},
					"indices":27,
					"material":4
				}
			]
		}
	],
	"accessors":[
		{
			"bufferView":0,
			"componentType":5126,
			"count":2402,
			"max":[
				4.730217456817627,
				0,
				3.5324723720550537
			],
			"min":[
				-4.730217456817627,
				0,
				-3.496371030807495
			],
			"type":"VEC3"
		},
		{
			"bufferView":1,
			"componentType":5126,
			"count":2402,
			"type":"VEC3"
		},
		{
			"bufferView":2,
			"componentType":5126,
			"count":2402,
			"type":"VEC2"
		},
		{
			"bufferView":3,
			"componentType":5123,
			"count":7128,
			"type":"SCALAR"
		},
		{
			"bufferView":4,
			"componentType":5126,
			"count":2404,
			"max":[
				4.730217456817627,
				-2,
				3.5324723720550537
			],
			"min":[
				-4.730217456817627,
				-2,
				-3.496371030807495
			],
			"type":"VEC3"
		},
		{
			"bufferView":5,
			"componentType":5126,
			"count":2404,
			"type":"VEC3"
		},
		{
			"bufferView":6,
			"componentType":5126,
			"count":2404,
			"type":"VEC2"
		},
		{
			"bufferView":7,
			"componentType":5123,
			"count":7128,
			"type":"SCALAR"
		},
		{
			"bufferView":8,
			"componentType":5126,
			"count":6851,
			"max":[
				4.730217456817627,
				0,
				3.5324723720550537
			],
			"min":[
				-4.730217456817627,
				-2,
				-3.496371030807495
			],
			"type":"VEC3"
		},
		{
			"bufferView":9,
			"componentType":5126,
			"count":6851,
			"type":"VEC3"
		},
		{
			"bufferView":10,
			"componentType":5126,
			"count":6851,
			"type":"VEC2"
		},
		{
			"bufferView":11,
			"componentType":5123,
			"count":14412,
			"type":"SCALAR"
		},
		{
			"bufferView":12,
			"componentType":5126,
			"count":12021,
			"max":[
				8.689889907836914,
				0,
				3.888563632965088
			],
			"min":[
				-8.689889907836914,
				-2,
				-3.888563632965088
			],
			"type":"VEC3"
		},
		{
			"bufferView":13,
			"componentType":5126,
			"count":12021,
			"type":"VEC3"
		},
		{
			"bufferView":14,
			"componentType":5126,
			"count":12021,
			"type":"VEC2"
		},
		{
			"bufferView":15,
			"componentType":5123,
			"count":29724,
			"type":"SCALAR"
		},
		{
			"bufferView":16,
			"componentType":5126,
			"count":10720,
			"max":[
				7.640030860900879,
				1,
				7.127765655517578
			],
			"min":[
				-7.640030860900879,
				-1,
				-7.127765655517578
			],
			"type":"VEC3"
		},
		{
			"bufferView":17,
			"componentType":5126,
			"count":10720,
			"type":"VEC3"
		},
		{
			"bufferView":18,
			"componentType":5126,
			"count":10720,
			"type":"VEC2"
		},
		{
			"bufferView":19,
			"componentType":5123,
			"count":26580,
			"type":"SCALAR"
		},
		{
			"bufferView":20,
			"componentType":5126,
			"count":27842,
			"max":[
				40.748695373535156,
				1.5,
				5.527928829193115
			],
			"min":[
				-40.748695373535156,
				-1.5,
				-5.527928829193115
			],
			"type":"VEC3"
		},
		{
			"bufferView":21,
			"componentType":5126,
			"count":27842,
			"type":"VEC3"
		},
		{
			"bufferView":22,
			"componentType":5126,
			"count":27842,
			"type":"VEC2"
		},
		{
			"bufferView":23,
			"componentType":5123,
			"count":70284,
			"type":"SCALAR"
		},
		{
			"bufferView":24,
			"componentType":5126,
			"count":15868,
			"max":[
				22.97224235534668,
				1.5,
				12.581170082092285
			],
			"min":[
				-22.97224235534668,
				-1.5,
				-12.581170082092285
			],
			"type":"VEC3"
		},
		{
			"bufferView":25,
			"componentType":5126,
			"count":15868,
			"type":"VEC3"
		},
		{
			"bufferView":26,
			"componentType":5126,
			"count":15868,
			"type":"VEC2"
		},
		{
			"bufferView":27,
			"componentType":5123,
			"count":39840,
			"type":"SCALAR"
		}
	],
	"bufferViews":[
		{
			"buffer":0,
			"byteLength":28824,
			"byteOffset":0,
			"target":34962
		},
		{
			"buffer":0,
			"byteLength":28824,
			"byteOffset":28824,
			"target":34962
		},
		{
			"buffer":0,
			"byteLength":19216,
			"byteOffset":57648,
			"target":34962
		},
		{
			"buffer":0,
			"byteLength":14256,
			"byteOffset":76864,
			"target":34963
		},
		{
			"buffer":0,
			"byteLength":28848,
			"byteOffset":91120,
			"target":34962
		},
		{
			"buffer":0,
			"byteLength":28848,
			"byteOffset":119968,
			"target":34962
		},
		{
			"buffer":0,
			"byteLength":19232,
			"byteOffset":148816,
			"target":34962
		},
		{
			"buffer":0,
			"byteLength":14256,
			"byteOffset":168048,
			"target":34963
		},
		{
			"buffer":0,
			"byteLength":82212,
			"byteOffset":182304,
			"target":34962
		},
		{
			"buffer":0,
			"byteLength":82212,
			"byteOffset":264516,
			"target":34962
		},
		{
			"buffer":0,
			"byteLength":54808,
			"byteOffset":346728,
			"target":34962
		},
		{
			"buffer":0,
			"byteLength":28824,
			"byteOffset":401536,
			"target":34963
		},
		{
			"buffer":0,
			"byteLength":144252,
			"byteOffset":430360,
			"target":34962
		},
		{
			"buffer":0,
			"byteLength":144252,
			"byteOffset":574612,
			"target":34962
		},
		{
			"buffer":0,
			"byteLength":96168,
			"byteOffset":718864,
			"target":34962
		},
		{
			"buffer":0,
			"byteLength":59448,
			"byteOffset":815032,
			"target":34963
		},
		{
			"buffer":0,
			"byteLength":128640,
			"byteOffset":874480,
			"target":34962
		},
		{
			"buffer":0,
			"byteLength":128640,
			"byteOffset":1003120,
			"target":34962
		},
		{
			"buffer":0,
			"byteLength":85760,
			"byteOffset":1131760,
			"target":34962
		},
		{
			"buffer":0,
			"byteLength":53160,
			"byteOffset":1217520,
			"target":34963
		},
		{
			"buffer":0,
			"byteLength":334104,
			"byteOffset":1270680,
			"target":34962
		},
		{
			"buffer":0,
			"byteLength":334104,
			"byteOffset":1604784,
			"target":34962
		},
		{
			"buffer":0,
			"byteLength":222736,
			"byteOffset":1938888,
			"target":34962
		},
		{
			"buffer":0,
			"byteLength":140568,
			"byteOffset":2161624,
			"target":34963
		},
		{
			"buffer":0,
			"byteLength":190416,
			"byteOffset":2302192,
			"target":34962
		},
		{
			"buffer":0,
			"byteLength":190416,
			"byteOffset":2492608,
			"target":34962
		},
		{
			"buffer":0,
			"byteLength":126944,
			"byteOffset":2683024,
			"target":34962
		},
		{
			"buffer":0,
			"byteLength":79680,
			"byteOffset":2809968,
			"target":34963
		}
	],
	"buffers":[
		{
			"byteLength":2889648,
			"uri":"data:application/octet-stream;base64,"
		}
	]
}
